<?xml version="1.0" encoding="UTF-8"?>
<svg width="17px" height="12px" viewBox="0 0 17 12" version="1.1" xmlns="http://www.w3.org/2000/svg" xmlns:xlink="http://www.w3.org/1999/xlink">
    <!-- Generator: Sketch 49.2 (51160) - http://www.bohemiancoding.com/sketch -->
    <title>email</title>
    <desc>Created with Sketch.</desc>
    <defs></defs>
    <g id="Headers" stroke="none" stroke-width="1" fill="none" fill-rule="evenodd">
        <g id="Beers-Page-with-thumbnails" transform="translate(-987.000000, -16.000000)" fill="#7F8894">
            <g id="Header" transform="translate(-1.000000, 0.000000)">
                <path d="M1002.99162,16.0000286 C1003.40829,16.0000286 1003.76245,16.1458618 1004.05412,16.4375276 C1004.34579,16.7291934 1004.49162,17.0833595 1004.49162,17.500025 L1004.49162,26.5000036 C1004.49162,26.9166691 1004.34579,27.2708352 1004.05412,27.562501 C1003.76245,27.8541669 1003.40829,28 1002.99162,28 L989.991619,28 C989.574953,28 989.220786,27.8541669 988.929119,27.562501 C988.637453,27.2708352 988.491619,26.9166691 988.491619,26.5000036 L988.491619,17.500025 C988.491619,17.0833595 988.637453,16.7291934 988.929119,16.4375276 C989.220786,16.1458618 989.574953,16.0000286 989.991619,16.0000286 L1002.99162,16.0000286 Z M1002.99158,17.500025 L989.991615,17.500025 L989.991615,18.781272 C990.72078,19.3646041 992.127027,20.468768 994.210355,22.0937641 L994.491605,22.3437635 C994.90827,22.6979291 995.241603,22.9479286 995.491602,23.0937617 C995.887435,23.3645945 996.220767,23.5000107 996.4916,23.5000107 C996.762433,23.5000107 997.095765,23.3645945 997.491598,23.0937617 C997.741597,22.9479286 998.07493,22.6979291 998.491595,22.3437635 L998.772845,22.0937641 C1000.85617,20.4896014 1002.26242,19.385437 1002.99158,18.781272 L1002.99158,17.500025 Z M989.991615,26.5000036 L1002.99158,26.5000036 L1002.99158,20.6875174 L999.366593,23.5625106 C998.845761,24.0000095 998.418679,24.3125088 998.085346,24.5000083 C997.522848,24.833341 996.991599,25.0000072 996.4916,25.0000072 C995.991601,25.0000072 995.449936,24.833341 994.866604,24.5000083 C994.554105,24.3125088 994.127022,24.0000095 993.585357,23.5625106 L989.991615,20.6875174 L989.991615,26.5000036 Z" id="email"></path>
            </g>
        </g>
    </g>
</svg>